<?xml version="1.0" standalone="no"?>
<!DOCTYPE svg PUBLIC "-//W3C//DTD SVG 20010904//EN"
 "http://www.w3.org/TR/2001/REC-SVG-20010904/DTD/svg10.dtd">
<svg version="1.0" xmlns="http://www.w3.org/2000/svg"
 width="972.000000pt" height="972.000000pt" viewBox="0 0 972.000000 972.000000"
 preserveAspectRatio="xMidYMid meet">
<metadata>
Created by potrace 1.11, written by Peter Selinger 2001-2013
</metadata>
<g transform="translate(0.000000,972.000000) scale(0.100000,-0.100000)"
fill="#000000" stroke="none">
<path d="M4635 9255 c-49 -173 -91 -319 -95 -324 -3 -6 -60 -18 -125 -26 -164
-21 -263 -40 -442 -82 -84 -20 -154 -35 -156 -32 -1 2 -48 65 -103 139 -55 74
-144 194 -198 267 l-97 132 -92 -34 c-195 -71 -192 -69 -195 -107 -2 -19 6
-158 17 -308 12 -151 21 -288 21 -306 0 -30 -5 -34 -112 -89 -130 -67 -320
-179 -427 -254 -41 -28 -79 -51 -85 -51 -5 0 -132 82 -283 181 -150 100 -278
179 -285 176 -7 -3 -62 -47 -121 -97 -89 -76 -108 -96 -103 -114 3 -11 64
-151 136 -309 l130 -288 -98 -107 c-110 -120 -234 -273 -308 -380 -27 -39 -56
-71 -64 -72 -8 0 -82 16 -165 36 -82 19 -208 48 -280 64 -71 17 -147 34 -167
39 l-38 9 -76 -135 -77 -134 34 -36 c19 -20 99 -104 180 -187 204 -212 249
-261 249 -273 0 -6 -14 -41 -31 -79 -46 -101 -133 -342 -170 -474 -18 -63 -34
-117 -35 -119 -2 -2 -150 -20 -330 -42 -179 -21 -329 -41 -333 -44 -3 -4 -18
-74 -32 -157 l-27 -150 232 -112 c127 -62 264 -127 304 -146 l74 -34 -8 -70
c-10 -92 -7 -479 4 -579 l8 -78 -298 -150 c-250 -127 -298 -154 -298 -172 0
-12 12 -83 26 -159 21 -111 29 -138 43 -138 15 0 138 -11 490 -46 85 -8 158
-17 163 -20 4 -3 8 -12 8 -20 0 -32 111 -349 174 -496 36 -85 66 -159 66 -163
0 -7 -140 -159 -352 -382 -54 -57 -98 -107 -98 -112 0 -14 139 -245 153 -255
8 -5 84 9 203 39 104 26 248 62 320 80 l131 32 64 -86 c95 -127 193 -243 307
-363 l102 -106 -71 -164 c-128 -293 -189 -439 -188 -451 0 -13 213 -190 232
-195 7 -1 75 41 152 94 228 156 404 274 410 274 3 0 32 -17 63 -38 127 -86
492 -290 560 -313 9 -3 7 -85 -9 -337 -11 -184 -18 -336 -15 -339 6 -7 274
-103 286 -103 7 0 156 203 350 478 41 57 48 62 75 58 17 -3 106 -21 200 -40
93 -20 233 -43 310 -52 77 -9 150 -18 162 -20 18 -3 27 -19 46 -82 13 -42 57
-186 97 -319 l74 -243 158 0 c87 0 158 3 158 6 0 6 127 459 161 576 l19 67 58
6 c131 15 370 58 502 90 78 19 145 35 149 35 6 0 367 -478 407 -538 2 -4 277
100 288 109 5 5 0 134 -14 316 -12 169 -23 319 -24 332 -1 17 7 29 24 37 150
77 350 193 461 265 74 49 139 89 142 89 4 0 60 -35 125 -79 217 -145 417 -274
432 -278 14 -3 231 175 238 196 2 5 -58 144 -133 309 l-137 300 112 124 c61
68 164 193 228 278 63 85 117 157 119 159 2 3 114 -21 248 -53 135 -32 275
-64 312 -72 36 -7 74 -16 83 -19 14 -4 33 22 95 131 l76 136 -77 82 c-43 44
-87 90 -98 102 -12 11 -83 83 -158 160 l-138 140 44 100 c50 112 117 305 166
472 27 93 36 113 54 117 11 2 161 20 331 40 171 20 313 39 316 43 7 8 49 256
49 288 0 18 -49 44 -297 164 l-298 143 0 296 c0 163 -2 328 -4 366 l-5 70 290
147 c159 81 293 149 299 151 5 2 -2 67 -19 160 l-29 156 -76 6 c-223 18 -587
57 -592 63 -3 4 -32 88 -64 187 -56 175 -121 340 -171 438 l-25 48 123 131
c68 73 171 183 231 246 59 63 107 117 107 120 0 4 -35 66 -79 137 -49 82 -83
129 -92 127 -59 -15 -608 -154 -620 -158 -12 -3 -43 30 -110 118 -110 144
-178 225 -295 347 l-85 90 29 68 c17 37 75 174 131 303 56 129 100 239 97 246
-5 13 -224 194 -235 194 -4 0 -53 -31 -109 -70 -377 -257 -441 -300 -448 -300
-4 0 -49 27 -100 60 -131 85 -249 152 -399 227 -71 36 -131 66 -132 67 -2 1
23 442 37 672 0 3 -38 17 -164 60 -105 36 -132 42 -142 32 -7 -7 -51 -67 -98
-133 -47 -66 -130 -183 -186 -261 l-102 -141 -111 27 c-144 35 -331 67 -477
82 -63 6 -120 16 -126 22 -6 6 -53 152 -104 324 l-93 312 -157 0 -157 0 -88
-315z m780 -604 c198 -25 294 -43 460 -86 745 -195 1419 -612 1923 -1192 402
-463 675 -982 827 -1573 71 -278 104 -528 112 -845 21 -861 -237 -1674 -752
-2370 -191 -259 -500 -572 -750 -761 -569 -430 -1245 -697 -1925 -759 -214
-19 -567 -19 -784 1 -710 64 -1413 352 -2001 820 -147 117 -467 438 -592 595
-157 197 -301 421 -416 649 -232 458 -354 879 -403 1390 -21 219 -14 619 15
836 102 758 407 1436 903 2009 479 554 1122 966 1823 1170 249 72 442 106 785
138 25 3 173 3 330 2 209 -3 328 -9 445 -24z"/>
<path d="M4655 8540 c-645 -52 -1220 -249 -1765 -605 -294 -192 -546 -419
-817 -735 -135 -157 -364 -508 -445 -680 -225 -480 -330 -846 -378 -1319 -15
-154 -12 -548 5 -717 47 -449 171 -868 379 -1284 289 -576 774 -1109 1322
-1451 477 -297 973 -473 1539 -545 197 -26 642 -26 845 -1 157 20 339 54 490
92 435 109 922 342 1283 613 777 584 1285 1417 1441 2365 35 213 46 350 46
595 0 637 -152 1223 -463 1785 -170 306 -340 530 -607 798 -253 255 -426 392
-710 564 -460 279 -947 445 -1495 510 -158 19 -520 27 -670 15z m280 -722 c21
-57 52 -143 70 -192 l32 -88 6 92 c4 51 7 135 7 186 0 56 4 94 11 96 5 2 28 2
50 0 l40 -4 -7 -327 c-3 -179 -9 -329 -13 -332 -3 -3 -24 -4 -46 -2 l-40 5
-65 180 c-36 99 -68 182 -72 185 -5 2 -8 -79 -8 -181 l0 -186 -52 0 -51 0 6
248 c4 136 7 286 7 335 l0 87 44 0 44 0 37 -102z m-269 58 c3 -19 4 -41 2 -48
-3 -7 -37 -17 -82 -24 -43 -7 -79 -14 -81 -16 -4 -4 21 -177 26 -182 2 -2 35
1 72 6 37 6 69 9 71 7 2 -2 7 -23 11 -45 l6 -42 -63 -6 c-35 -4 -69 -10 -75
-14 -9 -6 -9 -30 2 -101 8 -51 16 -95 18 -98 3 -2 42 1 86 8 45 6 84 10 85 8
2 -2 6 -22 8 -44 l3 -40 -133 -19 c-73 -10 -135 -16 -138 -13 -7 7 -98 647
-92 652 3 3 61 14 129 24 68 10 127 19 131 20 4 0 10 -15 14 -33z m819 -11
c82 -17 124 -30 133 -42 14 -18 12 -45 -9 -142 l-10 -48 -49 10 c-43 8 -49 12
-45 31 2 11 6 37 10 57 l5 36 -57 12 c-31 6 -60 8 -63 4 -6 -7 -91 -457 -90
-475 0 -4 25 -10 55 -13 30 -4 58 -8 62 -9 8 -1 31 113 32 157 1 24 -3 27 -29
27 -27 0 -30 3 -30 33 0 57 8 61 88 47 39 -7 76 -16 82 -20 14 -8 -35 -283
-57 -317 -7 -13 -23 -23 -36 -23 -22 0 -217 36 -249 46 -37 11 -37 11 50 473
22 114 34 158 48 168 23 17 17 17 159 -12z m337 -85 c21 -6 40 -14 42 -19 3
-5 -39 -147 -93 -317 -94 -295 -99 -309 -122 -307 -13 1 -36 6 -51 12 l-26 10
54 168 c30 92 75 234 101 316 25 81 49 147 52 147 3 0 23 -5 43 -10z m-1768
-40 c9 -22 16 -42 16 -44 0 -2 -35 -16 -77 -31 -43 -15 -80 -29 -82 -30 -6 -6
61 -175 70 -175 5 0 32 9 61 20 69 26 73 25 88 -10 17 -42 10 -52 -54 -74 -31
-11 -59 -23 -62 -27 -4 -6 48 -158 62 -180 3 -5 41 5 85 21 l79 29 15 -36 c8
-19 15 -39 15 -43 0 -9 -250 -103 -256 -97 -6 6 -235 619 -232 622 5 3 242 93
249 94 4 1 14 -17 23 -39z m2008 -46 l31 -16 -6 -91 c-15 -216 -19 -312 -15
-307 3 3 24 48 48 100 23 52 56 125 73 163 16 37 33 67 37 67 19 0 80 -31 80
-41 0 -6 -35 -88 -79 -182 -43 -95 -102 -224 -131 -287 -28 -63 -55 -119 -59
-123 -5 -4 -24 0 -45 9 -43 21 -42 12 -22 264 7 91 12 166 11 168 -1 1 -37
-73 -79 -165 -43 -93 -81 -172 -86 -176 -4 -5 -26 1 -49 12 -40 21 -41 22 -28
50 85 199 265 571 275 571 7 0 27 -7 44 -16z m-2389 -109 c9 -20 17 -38 17
-40 0 -2 -31 -20 -70 -41 -38 -20 -70 -40 -70 -45 0 -21 76 -159 87 -159 7 0
38 14 69 31 30 17 56 30 58 28 19 -25 36 -56 36 -65 0 -7 -24 -24 -52 -39 -29
-15 -57 -31 -62 -35 -9 -9 79 -180 92 -180 4 0 39 18 79 39 l72 40 20 -35 c12
-19 21 -38 21 -42 0 -6 -212 -124 -235 -130 -9 -2 -52 72 -183 318 -22 41 -63
116 -90 165 -28 50 -47 94 -43 98 13 13 215 126 227 127 6 0 18 -16 27 -35z
m2897 -166 c61 -39 110 -74 110 -77 0 -12 -39 -72 -47 -72 -4 0 -38 21 -76 46
-37 25 -69 45 -71 43 -20 -27 -96 -147 -96 -152 0 -4 25 -23 55 -43 30 -20 55
-40 55 -45 0 -4 -8 -21 -17 -38 -18 -31 -37 -39 -48 -22 -3 5 -27 23 -54 39
l-49 31 -57 -86 c-31 -47 -53 -88 -48 -92 6 -3 38 -24 71 -46 34 -22 62 -44
62 -50 0 -5 -11 -23 -24 -40 l-24 -30 -111 75 c-61 41 -111 77 -111 81 0 9
359 549 365 549 3 0 55 -32 115 -71z m-3242 -76 c90 -109 152 -196 152 -214 0
-10 -12 -29 -26 -43 l-27 -24 24 -15 c69 -43 235 -150 239 -154 6 -6 -61 -62
-74 -63 -15 0 -270 167 -296 194 l-23 26 38 34 39 33 -58 77 c-32 42 -64 76
-71 76 -6 0 -29 -15 -51 -34 -30 -26 -36 -37 -28 -47 222 -290 334 -439 334
-446 0 -4 -17 -20 -38 -35 l-38 -26 -199 260 c-110 143 -200 263 -200 268 0
13 227 180 246 180 9 0 35 -21 57 -47z m3523 -136 c25 -23 69 -64 99 -90 l53
-48 -28 -29 c-16 -17 -32 -30 -35 -30 -3 0 -31 23 -62 50 -31 28 -61 50 -66
50 -5 0 -36 -30 -68 -66 l-58 -67 52 -48 c29 -26 52 -51 52 -55 0 -4 -12 -20
-27 -36 l-26 -27 -57 49 -56 49 -69 -76 -69 -76 62 -56 c34 -31 62 -60 62 -65
0 -13 -41 -56 -53 -56 -5 0 -39 26 -74 58 -36 31 -81 71 -100 87 l-35 30 103
116 c57 63 157 174 223 247 65 73 121 132 125 132 3 0 27 -20 52 -43z m-3782
-264 c247 -233 311 -295 311 -301 0 -11 -54 -62 -65 -62 -6 0 -57 43 -114 97
l-103 96 -46 -47 -47 -47 110 -104 110 -104 -35 -35 -35 -35 -105 97 c-58 52
-167 155 -243 227 l-138 130 33 39 33 38 98 -92 c53 -50 100 -90 105 -88 5 1
26 23 47 47 l39 43 -99 94 -100 93 34 35 c19 20 37 36 39 36 2 0 79 -71 171
-157z m4083 -35 c103 -122 138 -170 138 -189 0 -11 -19 -38 -42 -59 -67 -60
-199 -160 -213 -160 -7 0 -25 12 -40 28 -15 15 -30 23 -32 17 -4 -13 -143
-248 -152 -258 -4 -4 -22 11 -39 32 l-32 40 28 48 c16 26 54 91 86 144 31 53
68 102 82 109 23 13 27 11 53 -21 l29 -34 43 35 c24 18 61 48 81 64 l36 31
-36 45 c-19 25 -37 47 -38 49 -2 2 -67 -50 -146 -116 -219 -182 -296 -243
-305 -243 -4 0 -21 16 -37 36 l-29 37 29 21 c15 11 82 66 148 121 203 170 331
274 337 275 4 0 27 -24 51 -52z m-4526 -180 c16 -12 31 -23 32 -24 2 -1 -10
-23 -27 -48 l-32 -45 43 -27 c24 -15 132 -87 241 -161 l198 -135 -27 -36 c-15
-21 -29 -39 -30 -41 -3 -3 -300 194 -463 307 -17 12 -21 9 -42 -24 -13 -21
-27 -42 -30 -47 -6 -8 -40 10 -78 40 -6 5 170 263 179 263 4 0 20 -10 36 -22z
m4796 -185 c33 -40 118 -202 118 -226 0 -21 -13 -34 -77 -72 -85 -52 -82 -52
-118 16 -13 25 -13 27 28 49 70 38 69 36 35 91 l-30 50 -47 -27 c-25 -15 -48
-28 -49 -30 -2 -1 -15 -47 -28 -101 -54 -215 -43 -195 -143 -252 -86 -50 -114
-58 -137 -43 -16 10 -134 217 -134 234 0 20 33 48 109 92 50 29 66 34 73 24
16 -24 38 -67 38 -75 0 -4 -25 -21 -55 -38 -60 -32 -60 -32 -20 -95 l26 -41
42 26 c23 14 48 29 54 33 7 4 28 68 46 142 18 74 38 143 43 153 14 25 153 105
185 106 14 1 33 -7 41 -16z m-2752 -232 c19 -10 48 -35 65 -55 l30 -38 3 -416
3 -415 -26 -53 c-28 -57 -26 -55 -283 -236 -79 -55 -142 -104 -140 -109 2 -4
82 -63 178 -129 205 -142 234 -168 257 -229 16 -42 18 -91 18 -521 l0 -475
-28 -48 c-52 -87 -46 -87 -529 -87 -271 0 -427 4 -445 11 -38 14 -83 57 -99
96 -11 26 -14 112 -14 413 l0 381 113 -3 112 -3 3 -347 2 -348 325 0 325 0 0
448 -1 447 -247 186 c-194 145 -247 191 -249 210 -3 26 -16 15 350 284 l147
109 0 373 0 373 -325 0 -325 0 0 -320 0 -320 -115 0 -115 0 0 345 c0 288 3
352 15 382 21 50 42 72 90 94 37 17 74 19 455 19 386 0 418 -1 450 -19z m1297
-12 c40 -15 73 -48 94 -94 17 -36 19 -71 19 -382 l0 -343 -115 0 -115 0 0 315
0 315 -325 0 -325 0 0 -369 0 -369 118 -85 c313 -228 381 -282 381 -304 1 -16
-23 -39 -90 -88 -51 -37 -99 -74 -108 -81 -9 -8 -80 -61 -158 -119 l-143 -106
0 -444 0 -445 325 0 325 0 0 350 0 350 115 0 115 0 0 -379 c0 -245 -4 -390
-11 -408 -15 -40 -48 -73 -94 -94 -37 -17 -73 -19 -444 -19 -280 0 -416 4
-443 12 -48 14 -103 73 -117 125 -15 52 -15 885 0 952 17 82 51 116 257 256
105 72 190 134 188 140 -1 5 -86 68 -189 140 -102 71 -195 142 -207 157 -49
64 -50 71 -50 492 0 255 4 405 11 423 14 37 57 82 94 99 39 17 847 20 892 3z
m-2308 -3216 c110 -84 151 -123 151 -143 0 -21 -132 -195 -154 -203 -9 -4 -30
-4 -48 0 -28 6 -31 4 -23 -13 26 -62 21 -75 -79 -207 -77 -102 -81 -101 -222
8 -60 46 -110 88 -111 92 -2 5 49 76 113 158 64 83 153 198 197 257 45 59 86
108 91 108 5 0 44 -26 85 -57z m2705 -157 c66 -195 69 -201 143 -299 l76 -101
-33 -28 c-19 -15 -39 -28 -45 -28 -6 0 -44 45 -85 101 -65 87 -88 110 -175
170 -154 106 -240 169 -243 178 -1 4 15 20 38 36 27 19 44 25 52 18 7 -5 57
-45 111 -87 54 -43 100 -76 101 -74 2 1 -18 57 -45 123 -26 66 -48 127 -48
135 -1 17 71 72 80 62 3 -4 36 -97 73 -206z m-2300 -100 c96 -45 134 -69 138
-84 5 -19 -97 -255 -125 -291 -8 -9 -24 -11 -53 -7 l-42 5 -6 -47 c-3 -26 -8
-78 -11 -117 -3 -38 -8 -87 -11 -107 l-6 -37 -47 24 -47 24 8 78 c19 182 29
255 39 277 l11 24 46 -20 c29 -13 47 -17 50 -10 2 6 21 47 43 93 22 45 38 83
37 84 -2 1 -27 15 -56 29 l-53 27 -13 -33 c-8 -18 -51 -109 -95 -202 -45 -93
-93 -195 -107 -227 -15 -33 -31 -59 -35 -59 -25 0 -90 34 -85 45 12 31 281
595 283 595 2 0 64 -29 137 -64z m1933 -96 c34 -69 62 -137 63 -152 0 -19 -9
-34 -30 -50 l-31 -22 112 -112 112 -112 -49 -21 -49 -22 -111 113 c-61 63
-119 128 -128 146 l-17 32 45 20 45 19 -25 57 c-13 31 -34 74 -44 95 l-20 39
-54 -27 -54 -26 22 -51 c13 -28 67 -145 120 -260 54 -114 94 -212 89 -217 -4
-4 -25 -15 -46 -24 l-38 -16 -23 53 c-13 29 -76 165 -140 302 -64 137 -115
251 -113 252 1 1 56 28 122 58 170 79 165 81 242 -74z m-1537 -45 c58 -14 110
-28 117 -30 8 -3 8 -14 1 -44 -12 -46 -17 -48 -98 -26 -86 23 -84 24 -105 -62
-10 -43 -20 -83 -22 -89 -3 -7 24 -18 67 -29 l72 -18 -6 -40 c-4 -23 -8 -43
-10 -45 -2 -2 -32 4 -66 13 -34 9 -67 14 -73 12 -11 -3 -57 -176 -51 -188 2
-4 36 -15 76 -24 40 -10 77 -21 81 -25 5 -4 4 -26 -2 -48 l-11 -40 -98 25
c-176 44 -170 42 -166 61 11 47 136 561 145 595 8 29 14 37 27 33 9 -3 64 -17
122 -31z m1085 3 c13 -63 15 -61 -70 -81 -44 -10 -81 -19 -82 -20 -2 -3 37
-168 42 -177 3 -4 35 1 72 11 36 10 68 18 69 16 1 -1 7 -20 13 -42 13 -47 11
-48 -70 -65 -33 -7 -59 -16 -59 -21 0 -32 44 -189 53 -189 7 0 45 7 84 17 40
9 75 15 77 12 2 -2 7 -22 10 -44 l7 -41 -131 -30 c-72 -17 -133 -28 -135 -24
-6 9 -145 596 -148 623 -2 19 9 24 108 48 141 34 153 35 160 7z m-772 -105 c4
-27 14 -114 23 -196 10 -81 18 -146 20 -144 4 4 42 235 49 303 9 79 14 86 61
82 l38 -3 17 -125 c10 -69 20 -156 24 -193 4 -38 9 -66 12 -64 2 3 15 81 29
173 34 236 26 214 84 214 34 0 50 -4 50 -12 0 -7 -24 -157 -53 -333 l-53 -320
-52 -3 c-37 -2 -52 1 -52 10 -1 26 -49 350 -53 354 -2 2 -16 -69 -31 -159 -15
-89 -29 -172 -32 -184 -4 -20 -11 -23 -53 -23 l-49 0 -11 83 c-6 45 -26 196
-44 335 l-33 252 52 0 51 0 6 -47z"/>
<path d="M3541 2938 l-54 -72 27 -23 c17 -14 39 -23 59 -22 26 0 39 9 70 50
21 27 40 56 43 63 5 13 -64 76 -83 76 -5 0 -33 -32 -62 -72z"/>
<path d="M3362 2707 l-63 -82 33 -28 c64 -53 61 -54 123 25 45 58 55 78 50 98
-6 25 -51 70 -70 69 -5 0 -38 -37 -73 -82z"/>
</g>
</svg>
